
<svg xmlns="http://www.w3.org/2000/svg" xmlns:xlink="http://www.w3.org/1999/xlink" viewBox="0 0 1440 900" width="1440" height="900" fill="none">
  <rect width="1440" height="900" fill="#fff"></rect>
  <g opacity="100%">
    <rect x="0" y="0" width="1440" height="52" fill="#fff" filter="url(#filter_dshadow_6_0_4_0000001a)"></rect>
    <rect x="0" y="52" width="1440" height="0" fill="#e5e7eb"></rect>
  </g>
  <g opacity="100%">
    <text x="16" y="31.5" font-family="Open Sans" font-size="14" fill="#030303" letter-spacing="0" font-weight="normal" font-style="normal">Home</text>
  </g>
  <g opacity="100%">
    <text x="82" y="31.5" font-family="Open Sans" font-size="14" fill="#030303" letter-spacing="0" font-weight="normal" font-style="normal">My Approvals</text>
  </g>
  <g opacity="100%">
    <text x="199" y="31.5" font-family="Open Sans" font-size="14" fill="#030303" letter-spacing="0" font-weight="normal" font-style="normal">Pending Approvals</text>
  </g>
  <g opacity="100%">
    <text x="516" y="31.5" font-family="Open Sans" font-size="14" fill="#030303" letter-spacing="0" font-weight="normal" font-style="normal">All Entries</text>
  </g>
  <g opacity="100%">
    <text x="1277" y="31.5" font-family="Open Sans" font-size="14" fill="#030303" letter-spacing="0" font-weight="normal" font-style="normal">THO</text>
  </g>
  <g opacity="100%">
    <text x="1330" y="31.5" font-family="Open Sans" font-size="14" fill="#030303" letter-spacing="0" font-weight="normal" font-style="normal">VIKING</text>
  </g>
  <g opacity="100%">
    <text x="385" y="118.5" font-family="Open Sans" font-size="48" fill="#030303" letter-spacing="0" font-weight="500" font-style="normal">
      <tspan x="405">Medical Records Tracker</tspan>
    </text>
  </g>
  <g opacity="100%">
    <rect x="16" y="156" width="2061" height="73" fill="#f9fafb" stroke="#e5e7eb" stroke-width="0" rx="0" filter="url(#filter_dshadow_0_0_0_00000014)"></rect>
  </g>
  <g opacity="100%">
    <text x="19" y="201.5" font-family="Open Sans" font-size="12" fill="#000" letter-spacing="0.6" font-weight="500" font-style="normal">UHAP ID</text>
  </g>
  <g opacity="100%">
    <text x="118" y="202.5" font-family="Open Sans" font-size="12" fill="#6b7280" letter-spacing="0.6" font-weight="500" font-style="normal">CASE NUMBER</text>
  </g>
  <g opacity="100%">
    <text x="254" y="201.5" font-family="Open Sans" font-size="12" fill="#000" letter-spacing="0.6" font-weight="500" font-style="normal">CLIENT ID</text>
  </g>
  <g opacity="100%">
    <text x="382" y="201.5" font-family="Open Sans" font-size="12" fill="#6b7280" letter-spacing="0.6" font-weight="500" font-style="normal">PATIENT</text>
  </g>
  <g opacity="100%">
    <text x="505" y="201.5" font-family="Open Sans" font-size="12" fill="#6b7280" letter-spacing="0.6" font-weight="500" font-style="normal">TREATMENT DATE</text>
  </g>
  <g opacity="100%">
    <text x="633" y="201.5" font-family="Open Sans" font-size="12" fill="#6b7280" letter-spacing="0.6" font-weight="500" font-style="normal">STATUS GLOBO</text>
  </g>
  <svg xmlns="http://www.w3.org/2000/svg" viewBox="0 0 512 512" width="12" height="12" fill="#9ca3af" x="72.5" y="216" opacity="100%">
    <path d="M487.976 0H24.028C2.71 0-8.047 25.866 7.058 40.971L192 225.941V432c0 7.831 3.821 15.17 10.237 19.662l80 55.98C298.02 518.69 320 507.493 320 487.98V225.941l184.947-184.97C520.021 25.896 509.338 0 487.976 0z"></path>
  </svg>
  <g opacity="100%">
    <text x="740" y="184.5" font-family="Open Sans" font-size="12" fill="#6b7280" letter-spacing="0.6" font-weight="500" font-style="normal">
      <tspan x="755">PAYABLE</tspan>
    </text>
    <text x="740" y="200.5" font-family="Open Sans" font-size="12" fill="#6b7280" letter-spacing="0.6" font-weight="500" font-style="normal">
      <tspan x="748">AMOUNT /</tspan>
    </text>
    <text x="740" y="216.5" font-family="Open Sans" font-size="12" fill="#6b7280" letter-spacing="0.6" font-weight="500" font-style="normal">
      <tspan x="766">FEES</tspan>
    </text>
  </g>
  <g opacity="100%">
    <text x="849" y="202.5" font-family="Open Sans" font-size="12" fill="#000" letter-spacing="0.6" font-weight="500" font-style="normal">TOTAL</text>
  </g>
  <g opacity="100%">
    <text x="946" y="201.5" font-family="Open Sans" font-size="12" fill="#6b7280" letter-spacing="0.6" font-weight="500" font-style="normal">CLAIM IMAGE</text>
  </g>
  <g opacity="100%">
    <text x="1202" y="201.5" font-family="Open Sans" font-size="12" fill="#6b7280" letter-spacing="0.6" font-weight="500" font-style="normal">STATUS</text>
  </g>
  <g opacity="100%">
    <text x="1608" y="168.5" font-family="Open Sans" font-size="12" fill="#6b7280" letter-spacing="0.6" font-weight="500" font-style="normal">COMMENT</text>
  </g>
  <g opacity="100%">
    <text x="1818" y="168.5" font-family="Open Sans" font-size="12" fill="#6b7280" letter-spacing="0.6" font-weight="500" font-style="normal">ACTIONS</text>
  </g>
  <g opacity="100%">
    <rect x="16" y="228" width="2061" height="1" fill="#e5e7eb" rx="0" filter="url(#filter_dshadow_0_0_0_00000014)"></rect>
  </g>
  <g opacity="100%">
    <rect x="16" y="228" width="2061" height="78" fill="#f9fafb" stroke="#e5e7eb" stroke-width="0" rx="0" filter="url(#filter_dshadow_0_0_0_00000014)"></rect>
  </g>
  <g opacity="100%">
    <text x="129" y="262.5" font-family="Open Sans" font-size="14" fill="#6b7280" letter-spacing="0" font-weight="normal" font-style="normal">1581597</text>
  </g>
  <g opacity="100%">
    <text x="240" y="260.5" font-family="Open Sans" font-size="14" fill="#6b7280" letter-spacing="0" font-weight="normal" font-style="normal">909001241010</text>
  </g>
  <g opacity="100%">
    <text x="371" y="260.5" font-family="Open Sans" font-size="14" fill="#6b7280" letter-spacing="0" font-weight="normal" font-style="normal">Ragnar Sigurdsson</text>
  </g>
  <g opacity="100%">
    <text x="520" y="251.5" font-family="Open Sans" font-size="14" fill="#6b7280" letter-spacing="0" font-weight="normal" font-style="normal">2025-10-15 /</text>
    <text x="520" y="271.5" font-family="Open Sans" font-size="14" fill="#6b7280" letter-spacing="0" font-weight="normal" font-style="normal">2025-10-15</text>
  </g>
  <g opacity="100%">
    <text x="651" y="258.5" font-family="Open Sans" font-size="14" fill="#6b7280" letter-spacing="0" font-weight="normal" font-style="normal">Pending</text>
  </g>
  <g opacity="100%">
    <text x="740" y="256.5" font-family="Open Sans" font-size="14" fill="#6b7280" letter-spacing="0" font-weight="normal" font-style="normal">US$ 1.157,59</text>
    <text x="740" y="276.5" font-family="Open Sans" font-size="14" fill="#6b7280" letter-spacing="0" font-weight="normal" font-style="normal">/ US$ 114,54</text>
  </g>
  <g opacity="100%">
    <rect filter="url(#filter_dshadow_0_0_0_00000014)" x="1632" y="245" width="162" height="40" fill="#fff" rx="20" stroke="#e5e7eb" stroke-width="0"></rect>
    <text x="1640" y="270.5" font-family="Open Sans" font-size="14" fill="#94a3b8" letter-spacing="0" font-weight="normal" font-style="normal">
      <tspan>Add comment</tspan>
    </text>
  </g>
  <g opacity="100%">
    <rect filter="url(#filter_dshadow_0_0_0_00000014)" x="1842" y="255" width="59" height="24" fill="#fff" stroke="#e5e7eb" stroke-width="0" rx="12"></rect>
    <text x="1850.5" y="271.5" font-family="Open Sans" font-size="12" fill="#030303" letter-spacing="0" font-weight="600" font-style="normal">
      <tspan>Update</tspan>
    </text>
  </g>
  <g opacity="100%">
    <rect filter="url(#filter_dshadow_0_0_0_00000014)" x="1904" y="255" width="90" height="24" fill="#fff" stroke="#e5e7eb" stroke-width="0" rx="12"></rect>
    <text x="1912" y="271.5" font-family="Open Sans" font-size="12" fill="#030303" letter-spacing="0" font-weight="600" font-style="normal">
      <tspan>Wrong Claim</tspan>
    </text>
  </g>
  <g opacity="100%">
    <rect filter="url(#filter_dshadow_0_0_0_00000014)" x="1997" y="255" width="63" height="24" fill="#fff" stroke="#e5e7eb" stroke-width="0" rx="12"></rect>
    <text x="2005" y="271.5" font-family="Open Sans" font-size="12" fill="#030303" letter-spacing="0" font-weight="600" font-style="normal">
      <tspan>Remove</tspan>
    </text>
  </g>
  <g opacity="100%">
    <rect x="16" y="306" width="2061" height="1" fill="#e5e7eb" rx="0" filter="url(#filter_dshadow_0_0_0_00000014)"></rect>
  </g>
  <g opacity="100%">
    <text x="126" y="346.5" font-family="Open Sans" font-size="14" fill="#6b7280" letter-spacing="0" font-weight="normal" font-style="normal">1544654</text>
  </g>
  <g opacity="100%">
    <text x="240" y="344.5" font-family="Open Sans" font-size="14" fill="#6b7280" letter-spacing="0" font-weight="normal" font-style="normal">909001541020</text>
  </g>
  <g opacity="100%">
    <text x="375" y="344.5" font-family="Open Sans" font-size="14" fill="#6b7280" letter-spacing="0" font-weight="normal" font-style="normal">Bjorn Ragnarsson</text>
  </g>
  <g opacity="100%">
    <text x="521" y="335.5" font-family="Open Sans" font-size="14" fill="#6b7280" letter-spacing="0" font-weight="normal" font-style="normal">2025-09-11 /</text>
    <text x="521" y="355.5" font-family="Open Sans" font-size="14" fill="#6b7280" letter-spacing="0" font-weight="normal" font-style="normal">2025-09-11</text>
  </g>
  <g opacity="100%">
    <text x="651" y="344.5" font-family="Open Sans" font-size="14" fill="#6b7280" letter-spacing="0" font-weight="normal" font-style="normal">Pending</text>
  </g>
  <g opacity="100%">
    <text x="740" y="342.5" font-family="Open Sans" font-size="14" fill="#6b7280" letter-spacing="0" font-weight="normal" font-style="normal">US$ 479,59 /</text>
    <text x="740" y="362.5" font-family="Open Sans" font-size="14" fill="#6b7280" letter-spacing="0" font-weight="normal" font-style="normal">US$ 18,31</text>
  </g>
  <g opacity="100%">
    <rect filter="url(#filter_dshadow_0_0_0_00000014)" x="1632" y="323" width="162" height="40" fill="#fff" rx="20" stroke="#e5e7eb" stroke-width="0"></rect>
    <text x="1640" y="348.5" font-family="Open Sans" font-size="14" fill="#94a3b8" letter-spacing="0" font-weight="normal" font-style="normal">
      <tspan>Add comment</tspan>
    </text>
  </g>
  <g opacity="100%">
    <rect filter="url(#filter_dshadow_0_0_0_00000014)" x="1842" y="333" width="59" height="24" fill="#fff" stroke="#e5e7eb" stroke-width="0" rx="12"></rect>
    <text x="1850.5" y="349.5" font-family="Open Sans" font-size="12" fill="#030303" letter-spacing="0" font-weight="600" font-style="normal">
      <tspan>Update</tspan>
    </text>
  </g>
  <g opacity="100%">
    <rect filter="url(#filter_dshadow_0_0_0_00000014)" x="1904" y="333" width="90" height="24" fill="#fff" stroke="#e5e7eb" stroke-width="0" rx="12"></rect>
    <text x="1912" y="349.5" font-family="Open Sans" font-size="12" fill="#030303" letter-spacing="0" font-weight="600" font-style="normal">
      <tspan>Wrong Claim</tspan>
    </text>
  </g>
  <g opacity="100%">
    <rect filter="url(#filter_dshadow_0_0_0_00000014)" x="1997" y="333" width="63" height="24" fill="#fff" stroke="#e5e7eb" stroke-width="0" rx="12"></rect>
    <text x="2005" y="349.5" font-family="Open Sans" font-size="12" fill="#030303" letter-spacing="0" font-weight="600" font-style="normal">
      <tspan>Remove</tspan>
    </text>
  </g>
  <g opacity="100%">
    <rect x="10" y="383" width="2061" height="78" fill="#f9fafb" stroke="#e5e7eb" stroke-width="0" rx="0" filter="url(#filter_dshadow_0_0_0_00000014)"></rect>
  </g>
  <g opacity="100%">
    <rect x="16" y="384" width="2061" height="1" fill="#e5e7eb" rx="0" filter="url(#filter_dshadow_0_0_0_00000014)"></rect>
  </g>
  <rect></rect>
  <g opacity="100%">
    <text x="10" y="262.5" font-family="Open Sans" font-size="14" fill="#6b7280" letter-spacing="0" font-weight="normal" font-style="normal">14471258</text>
  </g>
  <g opacity="100%">
    <text x="9" y="348.5" font-family="Open Sans" font-size="14" fill="#6b7280" letter-spacing="0" font-weight="normal" font-style="normal">14443654</text>
  </g>
  <g opacity="100%">
    <text x="9" y="425.5" font-family="Open Sans" font-size="14" fill="#6b7280" letter-spacing="0" font-weight="normal" font-style="normal">14557849</text>
  </g>
  <g opacity="100%">
    <text x="129" y="426.5" font-family="Open Sans" font-size="14" fill="#6b7280" letter-spacing="0" font-weight="normal" font-style="normal">1698456</text>
  </g>
  <g opacity="100%">
    <text x="241" y="422.5" font-family="Open Sans" font-size="14" fill="#6b7280" letter-spacing="0" font-weight="normal" font-style="normal">909001363030</text>
  </g>
  <g opacity="100%">
    <text x="375" y="420.5" font-family="Open Sans" font-size="14" fill="#6b7280" letter-spacing="0" font-weight="normal" font-style="normal">Ivar Ragnarsson</text>
  </g>
  <g opacity="100%">
    <text x="520" y="411.5" font-family="Open Sans" font-size="14" fill="#6b7280" letter-spacing="0" font-weight="normal" font-style="normal">2025-08-15 /</text>
    <text x="520" y="431.5" font-family="Open Sans" font-size="14" fill="#6b7280" letter-spacing="0" font-weight="normal" font-style="normal">2025-08-23</text>
  </g>
  <g opacity="100%">
    <text x="656" y="419.5" font-family="Open Sans" font-size="14" fill="#6b7280" letter-spacing="0" font-weight="normal" font-style="normal">Pending</text>
  </g>
  <g opacity="100%">
    <text x="739" y="420.5" font-family="Open Sans" font-size="14" fill="#6b7280" letter-spacing="0" font-weight="normal" font-style="normal">US$ 287,47 /</text>
    <text x="739" y="440.5" font-family="Open Sans" font-size="14" fill="#6b7280" letter-spacing="0" font-weight="normal" font-style="normal">US$ 13,53</text>
  </g>
  <g opacity="100%">
    <rect filter="url(#filter_dshadow_0_0_0_00000014)" x="1632" y="401" width="162" height="40" fill="#fff" rx="20" stroke="#e5e7eb" stroke-width="0"></rect>
    <text x="1640" y="426.5" font-family="Open Sans" font-size="14" fill="#94a3b8" letter-spacing="0" font-weight="normal" font-style="normal">
      <tspan>Add comment</tspan>
    </text>
  </g>
  <g opacity="100%">
    <rect filter="url(#filter_dshadow_0_0_0_00000014)" x="1842" y="411" width="59" height="24" fill="#fff" stroke="#e5e7eb" stroke-width="0" rx="12"></rect>
    <text x="1850.5" y="427.5" font-family="Open Sans" font-size="12" fill="#030303" letter-spacing="0" font-weight="600" font-style="normal">
      <tspan>Update</tspan>
    </text>
  </g>
  <g opacity="100%">
    <rect filter="url(#filter_dshadow_0_0_0_00000014)" x="1904" y="411" width="90" height="24" fill="#fff" stroke="#e5e7eb" stroke-width="0" rx="12"></rect>
    <text x="1912" y="427.5" font-family="Open Sans" font-size="12" fill="#030303" letter-spacing="0" font-weight="600" font-style="normal">
      <tspan>Wrong Claim</tspan>
    </text>
  </g>
  <g opacity="100%">
    <rect filter="url(#filter_dshadow_0_0_0_00000014)" x="1997" y="411" width="63" height="24" fill="#fff" stroke="#e5e7eb" stroke-width="0" rx="12"></rect>
    <text x="2005" y="427.5" font-family="Open Sans" font-size="12" fill="#030303" letter-spacing="0" font-weight="600" font-style="normal">
      <tspan>Remove</tspan>
    </text>
  </g>
  <g opacity="100%">
    <text x="1120" y="508.5" font-family="Open Sans" font-size="14" fill="#030303" letter-spacing="0" font-weight="normal" font-style="normal">Entries per page:</text>
  </g>
  <g opacity="100%">
    <rect filter="url(#filter_dshadow_0_0_0_00000014)" x="1246" y="493" width="46" height="24" fill="#fff" stroke="#e5e7eb" stroke-width="0" rx="12"></rect>
    <text x="1262" y="509.5" font-family="Open Sans" font-size="12" fill="#030303" letter-spacing="0" font-weight="600" font-style="normal">
      <tspan>10</tspan>
    </text>
  </g>
  <g opacity="100%">
    <rect filter="url(#filter_dshadow_0_0_0_00000014)" x="1308" y="493" width="46" height="24" fill="#c6c922" stroke="#e5e7eb" stroke-width="0" rx="12"></rect>
    <text x="1324" y="509.5" font-family="Open Sans" font-size="12" fill="#030303" letter-spacing="0" font-weight="600" font-style="normal">
      <tspan>20</tspan>
    </text>
  </g>
  <g opacity="100%">
    <rect filter="url(#filter_dshadow_0_0_0_00000014)" x="1370" y="493" width="46" height="24" fill="#fff" stroke="#e5e7eb" stroke-width="0" rx="12"></rect>
    <text x="1386" y="509.5" font-family="Open Sans" font-size="12" fill="#030303" letter-spacing="0" font-weight="600" font-style="normal">
      <tspan>50</tspan>
    </text>
  </g>
  <g opacity="100%">
    <text x="840" y="260.5" font-family="Open Sans" font-size="14" fill="#6b7280" letter-spacing="0" font-weight="normal" font-style="normal">US$ 1.329,72</text>
  </g>
  <g opacity="100%">
    <text x="840" y="346.5" font-family="Open Sans" font-size="14" fill="#6b7280" letter-spacing="0" font-weight="normal" font-style="normal">US$ 497,90</text>
  </g>
  <g opacity="100%">
    <text x="840" y="421.5" font-family="Open Sans" font-size="14" fill="#6b7280" letter-spacing="0" font-weight="normal" font-style="normal">US$ 301,00</text>
  </g>
  <svg xmlns="http://www.w3.org/2000/svg" viewBox="0 0 384 512" width="40" height="40" fill="#ff3b30" x="968" y="236" opacity="100%">
    <path d="M88 304H80V256H88C101.3 256 112 266.7 112 280C112 293.3 101.3 304 88 304zM192 256H200C208.8 256 216 263.2 216 272V336C216 344.8 208.8 352 200 352H192V256zM224 0V128C224 145.7 238.3 160 256 160H384V448C384 483.3 355.3 512 320 512H64C28.65 512 0 483.3 0 448V64C0 28.65 28.65 0 64 0H224zM64 224C55.16 224 48 231.2 48 240V368C48 376.8 55.16 384 64 384C72.84 384 80 376.8 80 368V336H88C118.9 336 144 310.9 144 280C144 249.1 118.9 224 88 224H64zM160 368C160 376.8 167.2 384 176 384H200C226.5 384 248 362.5 248 336V272C248 245.5 226.5 224 200 224H176C167.2 224 160 231.2 160 240V368zM288 224C279.2 224 272 231.2 272 240V368C272 376.8 279.2 384 288 384C296.8 384 304 376.8 304 368V320H336C344.8 320 352 312.8 352 304C352 295.2 344.8 288 336 288H304V256H336C344.8 256 352 248.8 352 240C352 231.2 344.8 224 336 224H288zM256 0L384 128H256V0z"></path>
  </svg>
  <svg xmlns="http://www.w3.org/2000/svg" viewBox="0 0 384 512" width="40" height="40" fill="#ff3b30" x="968" y="323" opacity="100%">
    <path d="M88 304H80V256H88C101.3 256 112 266.7 112 280C112 293.3 101.3 304 88 304zM192 256H200C208.8 256 216 263.2 216 272V336C216 344.8 208.8 352 200 352H192V256zM224 0V128C224 145.7 238.3 160 256 160H384V448C384 483.3 355.3 512 320 512H64C28.65 512 0 483.3 0 448V64C0 28.65 28.65 0 64 0H224zM64 224C55.16 224 48 231.2 48 240V368C48 376.8 55.16 384 64 384C72.84 384 80 376.8 80 368V336H88C118.9 336 144 310.9 144 280C144 249.1 118.9 224 88 224H64zM160 368C160 376.8 167.2 384 176 384H200C226.5 384 248 362.5 248 336V272C248 245.5 226.5 224 200 224H176C167.2 224 160 231.2 160 240V368zM288 224C279.2 224 272 231.2 272 240V368C272 376.8 279.2 384 288 384C296.8 384 304 376.8 304 368V320H336C344.8 320 352 312.8 352 304C352 295.2 344.8 288 336 288H304V256H336C344.8 256 352 248.8 352 240C352 231.2 344.8 224 336 224H288zM256 0L384 128H256V0z"></path>
  </svg>
  <svg xmlns="http://www.w3.org/2000/svg" viewBox="0 0 384 512" width="40" height="40" fill="#ff3b30" x="968" y="399" opacity="100%">
    <path d="M88 304H80V256H88C101.3 256 112 266.7 112 280C112 293.3 101.3 304 88 304zM192 256H200C208.8 256 216 263.2 216 272V336C216 344.8 208.8 352 200 352H192V256zM224 0V128C224 145.7 238.3 160 256 160H384V448C384 483.3 355.3 512 320 512H64C28.65 512 0 483.3 0 448V64C0 28.65 28.65 0 64 0H224zM64 224C55.16 224 48 231.2 48 240V368C48 376.8 55.16 384 64 384C72.84 384 80 376.8 80 368V336H88C118.9 336 144 310.9 144 280C144 249.1 118.9 224 88 224H64zM160 368C160 376.8 167.2 384 176 384H200C226.5 384 248 362.5 248 336V272C248 245.5 226.5 224 200 224H176C167.2 224 160 231.2 160 240V368zM288 224C279.2 224 272 231.2 272 240V368C272 376.8 279.2 384 288 384C296.8 384 304 376.8 304 368V320H336C344.8 320 352 312.8 352 304C352 295.2 344.8 288 336 288H304V256H336C344.8 256 352 248.8 352 240C352 231.2 344.8 224 336 224H288zM256 0L384 128H256V0z"></path>
  </svg>
  <g opacity="100%">
    <text x="1304" y="201.5" font-family="Open Sans" font-size="12" fill="#6b7280" letter-spacing="0.6" font-weight="500" font-style="normal">LAST UPDATE</text>
  </g>
  <g opacity="100%">
    <text x="336" y="31.5" font-family="Open Sans" font-size="14" fill="#030303" letter-spacing="0" font-weight="normal" font-style="normal">Medical Records Tracker</text>
  </g>
  <g opacity="100%">
    <text x="1189" y="262.5" font-family="Open Sans" font-size="14" fill="#6b7280" letter-spacing="0" font-weight="normal" font-style="normal">Requested</text>
  </g>
  <g opacity="100%">
    <text x="1189" y="348.5" font-family="Open Sans" font-size="14" fill="#6b7280" letter-spacing="0" font-weight="normal" font-style="normal">Requested</text>
  </g>
  <g opacity="100%">
    <text x="1196" y="420.5" font-family="Open Sans" font-size="14" fill="#6b7280" letter-spacing="0" font-weight="normal" font-style="normal">Received</text>
  </g>
  <g opacity="100%">
    <text x="1309" y="261.5" font-family="Open Sans" font-size="14" fill="#6b7280" letter-spacing="0" font-weight="normal" font-style="normal">
      <tspan x="1312">2025-08-10</tspan>
    </text>
    <text x="1309" y="281.5" font-family="Open Sans" font-size="14" fill="#6b7280" letter-spacing="0" font-weight="normal" font-style="normal">
      <tspan x="1329">16:20</tspan>
    </text>
  </g>
  <g opacity="100%">
    <text x="1309" y="339.5" font-family="Open Sans" font-size="14" fill="#6b7280" letter-spacing="0" font-weight="normal" font-style="normal">
      <tspan x="1312">2025-08-07</tspan>
    </text>
    <text x="1309" y="359.5" font-family="Open Sans" font-size="14" fill="#6b7280" letter-spacing="0" font-weight="normal" font-style="normal">
      <tspan x="1329">16:20</tspan>
    </text>
  </g>
  <g opacity="100%">
    <text x="1309" y="412.5" font-family="Open Sans" font-size="14" fill="#6b7280" letter-spacing="0" font-weight="normal" font-style="normal">
      <tspan x="1312">2025-08-12</tspan>
    </text>
    <text x="1309" y="432.5" font-family="Open Sans" font-size="14" fill="#6b7280" letter-spacing="0" font-weight="normal" font-style="normal">
      <tspan x="1329">16:20</tspan>
    </text>
  </g>
  <svg xmlns="http://www.w3.org/2000/svg" viewBox="0 0 512 512" width="12" height="12" fill="#9ca3af" x="206.5" y="216" opacity="100%">
    <path d="M487.976 0H24.028C2.71 0-8.047 25.866 7.058 40.971L192 225.941V432c0 7.831 3.821 15.17 10.237 19.662l80 55.98C298.02 518.69 320 507.493 320 487.98V225.941l184.947-184.97C520.021 25.896 509.338 0 487.976 0z"></path>
  </svg>
  <svg xmlns="http://www.w3.org/2000/svg" viewBox="0 0 512 512" width="12" height="12" fill="#9ca3af" x="317.5" y="216" opacity="100%">
    <path d="M487.976 0H24.028C2.71 0-8.047 25.866 7.058 40.971L192 225.941V432c0 7.831 3.821 15.17 10.237 19.662l80 55.98C298.02 518.69 320 507.493 320 487.98V225.941l184.947-184.97C520.021 25.896 509.338 0 487.976 0z"></path>
  </svg>
  <svg xmlns="http://www.w3.org/2000/svg" viewBox="0 0 512 512" width="12" height="12" fill="#9ca3af" x="435.5" y="216" opacity="100%">
    <path d="M487.976 0H24.028C2.71 0-8.047 25.866 7.058 40.971L192 225.941V432c0 7.831 3.821 15.17 10.237 19.662l80 55.98C298.02 518.69 320 507.493 320 487.98V225.941l184.947-184.97C520.021 25.896 509.338 0 487.976 0z"></path>
  </svg>
  <svg xmlns="http://www.w3.org/2000/svg" viewBox="0 0 512 512" width="12" height="12" fill="#9ca3af" x="617.5" y="216" opacity="100%">
    <path d="M487.976 0H24.028C2.71 0-8.047 25.866 7.058 40.971L192 225.941V432c0 7.831 3.821 15.17 10.237 19.662l80 55.98C298.02 518.69 320 507.493 320 487.98V225.941l184.947-184.97C520.021 25.896 509.338 0 487.976 0z"></path>
  </svg>
  <svg xmlns="http://www.w3.org/2000/svg" viewBox="0 0 512 512" width="12" height="12" fill="#9ca3af" x="725.5" y="216" opacity="100%">
    <path d="M487.976 0H24.028C2.71 0-8.047 25.866 7.058 40.971L192 225.941V432c0 7.831 3.821 15.17 10.237 19.662l80 55.98C298.02 518.69 320 507.493 320 487.98V225.941l184.947-184.97C520.021 25.896 509.338 0 487.976 0z"></path>
  </svg>
  <svg xmlns="http://www.w3.org/2000/svg" viewBox="0 0 512 512" width="12" height="12" fill="#9ca3af" x="811.5" y="216" opacity="100%">
    <path d="M487.976 0H24.028C2.71 0-8.047 25.866 7.058 40.971L192 225.941V432c0 7.831 3.821 15.17 10.237 19.662l80 55.98C298.02 518.69 320 507.493 320 487.98V225.941l184.947-184.97C520.021 25.896 509.338 0 487.976 0z"></path>
  </svg>
  <svg xmlns="http://www.w3.org/2000/svg" viewBox="0 0 512 512" width="12" height="12" fill="#9ca3af" x="890.5" y="216" opacity="100%">
    <path d="M487.976 0H24.028C2.71 0-8.047 25.866 7.058 40.971L192 225.941V432c0 7.831 3.821 15.17 10.237 19.662l80 55.98C298.02 518.69 320 507.493 320 487.98V225.941l184.947-184.97C520.021 25.896 509.338 0 487.976 0z"></path>
  </svg>
  <svg xmlns="http://www.w3.org/2000/svg" viewBox="0 0 512 512" width="12" height="12" fill="#9ca3af" x="1244.5" y="216" opacity="100%">
    <path d="M487.976 0H24.028C2.71 0-8.047 25.866 7.058 40.971L192 225.941V432c0 7.831 3.821 15.17 10.237 19.662l80 55.98C298.02 518.69 320 507.493 320 487.98V225.941l184.947-184.97C520.021 25.896 509.338 0 487.976 0z"></path>
  </svg>
  <svg xmlns="http://www.w3.org/2000/svg" viewBox="0 0 512 512" width="12" height="12" fill="#9ca3af" x="1379.5" y="216" opacity="100%">
    <path d="M487.976 0H24.028C2.71 0-8.047 25.866 7.058 40.971L192 225.941V432c0 7.831 3.821 15.17 10.237 19.662l80 55.98C298.02 518.69 320 507.493 320 487.98V225.941l184.947-184.97C520.021 25.896 509.338 0 487.976 0z"></path>
  </svg>
  <g opacity="100%">
    <text x="1060" y="201.5" font-family="Open Sans" font-size="12" fill="#6b7280" letter-spacing="0.6" font-weight="500" font-style="normal">MEDICAL REPORT</text>
  </g>
  <svg xmlns="http://www.w3.org/2000/svg" viewBox="0 0 384 512" width="40" height="40" fill="#ff3b30" x="1095" y="397" opacity="100%">
    <path d="M88 304H80V256H88C101.3 256 112 266.7 112 280C112 293.3 101.3 304 88 304zM192 256H200C208.8 256 216 263.2 216 272V336C216 344.8 208.8 352 200 352H192V256zM224 0V128C224 145.7 238.3 160 256 160H384V448C384 483.3 355.3 512 320 512H64C28.65 512 0 483.3 0 448V64C0 28.65 28.65 0 64 0H224zM64 224C55.16 224 48 231.2 48 240V368C48 376.8 55.16 384 64 384C72.84 384 80 376.8 80 368V336H88C118.9 336 144 310.9 144 280C144 249.1 118.9 224 88 224H64zM160 368C160 376.8 167.2 384 176 384H200C226.5 384 248 362.5 248 336V272C248 245.5 226.5 224 200 224H176C167.2 224 160 231.2 160 240V368zM288 224C279.2 224 272 231.2 272 240V368C272 376.8 279.2 384 288 384C296.8 384 304 376.8 304 368V320H336C344.8 320 352 312.8 352 304C352 295.2 344.8 288 336 288H304V256H336C344.8 256 352 248.8 352 240C352 231.2 344.8 224 336 224H288zM256 0L384 128H256V0z"></path>
  </svg>
  <svg xmlns="http://www.w3.org/2000/svg" height="40" width="40" viewBox="0 0 24 24" fill="#000" x="1095" y="237" opacity="100%">
    <path fill="none" d="M0 0h24v24H0z"></path>
    <path d="m6 2 .01 6L10 12l-3.99 4.01L6 22h12v-6l-4-4 4-3.99V2H6zm10 14.5V20H8v-3.5l4-4 4 4z"></path>
  </svg>
  <svg xmlns="http://www.w3.org/2000/svg" height="40" width="40" viewBox="0 0 24 24" fill="#000" x="1095" y="321" opacity="100%">
    <path fill="none" d="M0 0h24v24H0z"></path>
    <path d="m6 2 .01 6L10 12l-3.99 4.01L6 22h12v-6l-4-4 4-3.99V2H6zm10 14.5V20H8v-3.5l4-4 4 4z"></path>
  </svg>
  <defs>
    <filter id="filter_dshadow_6_0_4_0000001a" color-interpolation-filters="sRGB" filterUnits="userSpaceOnUse">
      <feFlood flood-opacity="0" result="bg-fix"></feFlood>
      <feColorMatrix in="SourceAlpha" type="matrix" values="0 0 0 0 0 0 0 0 0 0 0 0 0 0 0 0 0 0 127 0" result="alpha"></feColorMatrix>
      <feOffset dx="0" dy="4"></feOffset>
      <feGaussianBlur stdDeviation="3"></feGaussianBlur>
      <feComposite in2="alpha" operator="out"></feComposite>
      <feColorMatrix type="matrix" values="0 0 0 0 0 0 0 0 0 0 0 0 0 0 0 0 0 0 0.1 0"></feColorMatrix>
      <feBlend mode="normal" in2="bg-fix" result="bg-fix-filter_dshadow_6_0_4_0000001a"></feBlend>
      <feBlend in="SourceGraphic" in2="bg-fix-filter_dshadow_6_0_4_0000001a" result="shape"></feBlend>
    </filter>
    <filter id="filter_dshadow_0_0_0_00000014" color-interpolation-filters="sRGB" filterUnits="userSpaceOnUse">
      <feFlood flood-opacity="0" result="bg-fix"></feFlood>
      <feColorMatrix in="SourceAlpha" type="matrix" values="0 0 0 0 0 0 0 0 0 0 0 0 0 0 0 0 0 0 127 0" result="alpha"></feColorMatrix>
      <feOffset dx="0" dy="0"></feOffset>
      <feGaussianBlur stdDeviation="0"></feGaussianBlur>
      <feComposite in2="alpha" operator="out"></feComposite>
      <feColorMatrix type="matrix" values="0 0 0 0 0 0 0 0 0 0 0 0 0 0 0 0 0 0 0.08 0"></feColorMatrix>
      <feBlend mode="normal" in2="bg-fix" result="bg-fix-filter_dshadow_0_0_0_00000014"></feBlend>
      <feBlend in="SourceGraphic" in2="bg-fix-filter_dshadow_0_0_0_00000014" result="shape"></feBlend>
    </filter>
    <filter id="filter_dshadow_10_0_2_0000001a" color-interpolation-filters="sRGB" filterUnits="userSpaceOnUse">
      <feFlood flood-opacity="0" result="bg-fix"></feFlood>
      <feColorMatrix in="SourceAlpha" type="matrix" values="0 0 0 0 0 0 0 0 0 0 0 0 0 0 0 0 0 0 127 0" result="alpha"></feColorMatrix>
      <feOffset dx="0" dy="2"></feOffset>
      <feGaussianBlur stdDeviation="5"></feGaussianBlur>
      <feComposite in2="alpha" operator="out"></feComposite>
      <feColorMatrix type="matrix" values="0 0 0 0 0 0 0 0 0 0 0 0 0 0 0 0 0 0 0.1 0"></feColorMatrix>
      <feBlend mode="normal" in2="bg-fix" result="bg-fix-filter_dshadow_10_0_2_0000001a"></feBlend>
      <feBlend in="SourceGraphic" in2="bg-fix-filter_dshadow_10_0_2_0000001a" result="shape"></feBlend>
    </filter>
    <style id="google">@import url(https://fonts.googleapis.com/css2?family=Open+Sans:ital,wght@0,300;0,400;0,500;0,600;0,700;0,800;1,300;1,400;1,500;1,600;1,700;1,800&amp;display=swap);
</style>
    <style id="brand"></style>
  </defs>
</svg>